<?xml version="1.0" encoding="utf-8"?>
<!-- Generator: Adobe Illustrator 25.2.1, SVG Export Plug-In . SVG Version: 6.00 Build 0)  -->
<svg version="1.1" id="Layer_1" xmlns="http://www.w3.org/2000/svg" xmlns:xlink="http://www.w3.org/1999/xlink" x="0px" y="0px"
	 viewBox="0 0 2100 2100" style="enable-background:new 0 0 2100 2100;" xml:space="preserve">
<style type="text/css">
	.st0{fill:#FFFFFF;}
	.st1{fill:#FBC25C;}
	.st2{fill:#F8F3E3;}
	.st3{fill:#F8B4C1;}
	.st4{fill:#D51D48;}
	.st5{fill:none;}
</style>
<g>
	<rect class="st0" width="2100" height="2100"/>
	<g>
		<g>
			<path d="M524.8,1279v-41.7h100.8c-36.4-96-33.1-192.9-23.4-258.6c8.3-56.7,22.5-100.8,30.2-122c-26-24.1-47-52.5-62.5-84.5
				c-26-53.6-14.2-117.2,29.4-158.3c69.2-65.2,116.7-135.6,117.2-136.3c3.5-5.2,9.1-8.6,15.4-9.1c0.7-0.1,1.3-0.1,2-0.1
				c5.6,0,10.9,2.2,14.8,6.2c1.4,1.5,33.6,34.9,35.4,103.5c16.6,2.5,41.5,9.3,76.3,26.1c34.8,16.8,55.6,32.2,67.8,43.6
				c19.5-14.6,39.8-25.1,60.6-31.1c2.6-7.1,5.5-14.3,8.7-21.9c5-11.5,10-21.9,15.4-31.8c6.2-11.5,12.5-21.5,19.2-30.6
				c8.3-11.3,16.8-20.5,25.9-28.2c3.8-3.2,8.5-4.9,13.3-4.9c5.4,0,10.6,2.1,14.4,5.8c1.8,1.8,3.4,3.4,5.3,5.5
				c1.6,1.7,3.2,3.5,4.7,5.2c3.4,3.9,6.3,7.4,8.9,10.7c5.6,7,11,14.5,16.2,22.3c10,15,18.9,31.3,26.3,48.3c3.7,8.6,7,17.3,9.9,25.9
				c3.3,10.4,5.6,18.9,7.3,27c2.7,12.2,4.5,25,5.4,38l3.6,0.9c2.4,0.6,4.6,1.3,6.8,2c1,0.3,2.1,0.7,3.1,1l0.3,0.1l3.1,1.2
				c2.2,0.8,4.4,1.6,6.6,2.5c11.4,4.5,23.2,10.4,36.1,17.8c10.9,6.2,21,13.1,32.8,21.5c3.9,2.9,7.6,5.7,11.2,8.6l4.4,3.4l3.7,3.1
				c4.9-2.6,10.1-5.3,16-8.2c9.7-4.8,19.6-9.3,29.4-13.5c21.5-9.2,41.6-16.4,61.4-22c24.7-6.9,45.8-10.5,66.3-11.3
				c2.6-0.1,5.2-0.2,7.8-0.2c9.5,0,18.8,0.7,27.6,2.2c13.1,2.3,25.1,6.2,35.8,11.7c9.4,4.9,13.7,16,9.8,25.9
				c-3.9,10.1-8.2,20.4-14,33.2c-4.9,10.9-10.2,21.7-15.5,32.2c-11.7,23-23.5,43.3-36,62.2c-15.5,23.3-30.1,41.6-45.9,57.5
				c-9.8,9.9-19.4,18-29.3,24.9c-7.3,5.1-14.6,9.4-22,12.9c-0.1,2.3-0.2,4.6-0.3,7.1c-0.4,7.1-1,14.2-1.8,21.2
				c-1.6,14.3-4.2,28.5-7.8,42.1c-0.9,3.3-1.8,6.6-2.9,10.1c33.1,23.7,117.4,91,176.6,198.9h38.5v41.7L524.8,1279L524.8,1279z"/>
			<path d="M1530.5,1247.7c-62.6-117.3-156.3-187.1-182.7-205.2c1.9-5.6,3.6-11.2,5.1-16.8c3.4-13.5,5.9-27.1,7.5-40.7
				c0.8-6.8,1.4-13.7,1.8-20.6c0.2-4.5,0.4-8.9,0.4-13.4c9.4-3.9,18.2-9,26.3-14.6c10.1-7.1,19.3-15.2,27.9-23.7
				c17.1-17.2,31.5-36.2,44.6-55.9c13.1-19.8,24.7-40.3,35.4-61.2c5.3-10.5,10.4-21.1,15.3-31.8c4.9-10.8,9.4-21.4,13.8-32.7
				c1.9-4.8-0.2-10.4-4.9-12.9l-0.1,0c-10.4-5.4-21.5-8.8-32.7-10.7c-11.2-1.9-22.3-2.4-33.3-1.9c-22,0.9-43.3,5.2-63.9,10.9
				c-20.6,5.8-40.6,13.2-60.1,21.5c-9.8,4.2-19.4,8.6-28.9,13.3c-7.4,3.7-14.6,7.4-21.9,11.4l-8.9-7.5c-5-3.9-10-7.8-15.1-11.6
				c-10.4-7.4-20.9-14.7-32-21c-11.1-6.5-22.6-12.4-34.7-17.2c-3-1.2-6.1-2.3-9.2-3.4c-3.2-1-6.2-2.1-9.5-2.9l-4.8-1.3l-4.9-1.1
				c-0.3-0.1-0.7-0.1-1.1-0.2c-0.6-14.9-2.4-29.7-5.6-44.2c-1.9-8.8-4.3-17.4-7-25.9c-2.8-8.5-6-16.8-9.5-25
				c-7.2-16.3-15.7-32-25.5-46.8c-4.9-7.4-10.1-14.6-15.7-21.6c-2.8-3.5-5.6-6.9-8.6-10.3c-1.5-1.7-3-3.3-4.5-5
				c-1.6-1.7-3-3.2-4.9-5.1c-3.7-3.6-9.7-3.9-13.8-0.5l-0.1,0c-9.4,7.9-17.3,16.9-24.2,26.4c-6.9,9.4-13,19.3-18.5,29.4
				c-5.5,10.1-10.4,20.4-15,30.9c-3.7,8.7-7.2,17.4-10.3,26.4c-18.4,4.7-43,14.7-69.5,36.4c-9.6-10.6-30.1-28.1-71.5-48.1
				c-41.5-20-67.9-25.2-82.1-26.2c1-70.6-31.1-104-32.5-105.5c-2.2-2.2-5.3-3.4-8.4-3.1c-3.1,0.3-5.9,2-7.7,4.6
				c-0.5,0.7-48.5,71.9-118.7,138.1c-40.3,38-51.2,96.7-27.2,146.2c16,33,37.9,61.8,65.3,86.1c-6.6,17.2-22.9,63.9-32.1,126.5
				c-10.1,68.8-12.8,169.6,28.5,267.5H535.2v20.8h1029.6v-20.8H1530.5z"/>
			<path class="st1" d="M1037.7,626.3c-1.7-2.6-4.5-4.3-7.6-4.7c-0.5-0.1-4-0.4-9.8-0.1c1.9-4.9,3.9-9.7,5.9-14.5
				c4.3-9.9,9-19.7,14.1-29.1c5.1-9.4,10.8-18.5,17-27c4.2-5.7,8.8-11.1,13.6-16c0.5,0.5,1,1.1,1.4,1.6c2.7,3.1,5.4,6.2,7.9,9.5
				c5.2,6.5,10,13.2,14.6,20.1c9.2,13.8,17.1,28.5,23.8,43.6c3.3,7.6,6.2,15.3,8.8,23.2c2.5,7.9,4.8,15.8,6.5,23.8
				c3.5,16.1,5.2,32.5,5.3,48.9c0.1,5.5,4.4,10.1,9.9,10.4l0.2,0c0.6,0,2.2,0.2,3.4,0.4c1.3,0.2,2.7,0.5,4,0.7l4.1,0.9l4.2,1.1
				c2.8,0.7,5.5,1.7,8.3,2.6c2.8,1,5.5,2,8.2,3.1c10.9,4.3,21.6,9.8,31.9,15.8c10.4,5.9,20.3,12.8,30.2,19.8
				c4.8,3.6,9.6,7.4,14.4,11l14,11.7l0.1,0.1c3.3,2.7,8.1,3.3,12,1c8.6-4.9,17.8-9.8,26.9-14.2c9.2-4.5,18.5-8.8,27.9-12.8
				c18.8-8.1,38-15.1,57.5-20.6c19.5-5.5,39.4-9.4,59.1-10.2c9.8-0.4,19.6,0.1,29,1.6c6.2,1.1,12.2,2.7,17.9,4.9
				c-3.1,7.4-6.3,14.9-9.6,22.3c-4.7,10.4-9.7,20.7-14.9,30.9c-10.4,20.4-21.7,40.2-34.2,59.2c-12.6,18.9-26.3,37-42,52.7
				c-15.6,15.7-33.4,29.3-53.2,36c-4.2,1.4-7.2,5.5-7.1,10.2v0.1c0.2,6,0,12.7-0.4,19c-0.3,6.4-0.9,12.9-1.6,19.3
				c-1.5,12.8-3.8,25.5-7,37.9c-1.6,6.2-3.5,12.3-5.6,18.2c-2.2,5.9-4.6,11.8-7.3,17.4c-2.8,5.6-5.8,11-9.2,16.2
				c-0.5,0.8-1.1,1.5-1.6,2.2l-6.8-13.5l0,0c-0.9-2-2.4-3.7-4.4-4.8c-4.9-2.7-11-0.9-13.7,4l-0.9,1.6l-1.1,2l-1.4,2.3
				c-0.9,1.6-1.9,3.2-2.9,4.7c-2.1,3.1-4.3,6.2-6.6,9.2c-4.7,6-9.8,11.6-15.3,16.9c-5.6,5.2-11.5,10.2-17.9,14.5
				c-6.3,4.5-13,8.4-20,11.9c-7,3.6-14.3,6.4-21.8,9.2c-7.5,2.5-15.2,4.8-23.1,6.6c-15.8,3.6-32.2,5.7-48.8,7.1
				c16.4,3.7,33.3,5.2,50.4,4.4c8.6-0.2,17.1-1.5,25.6-3c8.5-1.8,16.9-4.1,25.2-7.1c8.2-3.1,16.2-6.9,23.9-11.4
				c7.6-4.6,14.9-9.7,21.6-15.7c6.7-5.9,12.8-12.6,18.2-19.7c1.2-1.7,2.5-3.5,3.7-5.2l5,10l0.1,0.1c0.6,1.1,1.3,2.1,2.3,3
				c4.2,3.8,10.8,3.5,14.6-0.7c4.9-5.4,9.4-11.1,13.4-17.1c3.9-6,7.4-12.2,10.5-18.6c0.4-0.9,0.8-1.8,1.2-2.8
				c28.3,20.2,109.8,84,166.9,185.3H958.6c-16-31.5,1.1-53.2,1.8-54.1c2.7-3.3,3.2-7.9,1.2-11.6s-6.1-5.9-10.4-5.4
				c-5.8,0.7-13.2,4.1-19.9,7.9c5.6-37.1,29.4-68.3,38.6-79.2c1.9,1.1,3.8,2.3,5.8,3.3c17,9.4,34.7,16.9,53.2,22.1
				c-15.7-11-31.3-21.6-46-33.1c-14.6-11.5-28.5-23.6-40.7-37c-12-13.6-22.4-28.2-29.4-44.2c-3.6-8-6.2-16.2-8.1-24.5
				c-0.8-4.2-1.5-8.4-1.8-12.5c-0.2-2.1-0.2-4.2-0.3-6.2c0-1,0-2,0-3l0.1-1.4c0-0.4,0.1-1,0.1-1l0,0l-10.2-12.4h-4.1
				c0.9-3.5,2.1-7,3.4-10.4c1.4-3.7,3-7.4,4.6-11.1c0.4-0.9,0.9-1.9,1.3-2.8c1.2,0.3,2.3,0.5,3.5,0.7l4.6,0.5c1.5,0.1,3,0.1,4.5,0.1
				c1.5,0.1,3,0,4.4-0.2l4.3-0.4c1.4-0.2,2.8-0.5,4.2-0.7l4.2-0.8l4-1.1c2.7-0.7,5.4-1.4,7.9-2.4c2.5-1,5.2-1.8,7.6-2.9l7.3-3.4
				c2.5-1,4.7-2.5,7-3.8c2.3-1.3,4.7-2.5,6.9-4c4.4-3,8.9-5.7,13.1-8.8c4.2-3.2,8.4-6.2,12.4-9.5l11.8-10.1l-13.5,7.5
				c-4.5,2.5-9.2,4.6-13.7,7c-4.6,2.3-9.3,4-14,6.1c-2.3,1-4.8,1.7-7.1,2.5c-2.4,0.8-4.7,1.8-7.1,2.3c-2.6,0.8-5.3,1.5-7.9,2.2
				c34.8-20.1,58.4-56.2,62-98.2c1.8-20.8,4.4-40.9,7.4-59.7c2.1-3.4,4.5-6.5,7.2-9.3c3.3-3.3,7.2-6.3,11.5-8.9
				c8.6-5.2,18.7-9,29-12.2l0.9-0.3c0.6-0.2,1.2-0.5,1.8-0.9c3-2.1,3.7-6.1,1.7-9.1l0,0c-1.2-1.8-2.3-3-3.3-4.1c-1-1.1-2-2-3-2.9
				c-2-1.7-3.9-3.3-5.9-4.9c-1.6-1.3-3.3-2.5-4.9-3.7c2-1,4.2-1.8,6.5-2.3c2.7-0.6,5.6-0.9,8.5-1c2.9-0.1,6,0,8.7,0.4l0,0
				c0.7,0.4,1.6,0.5,2.5,0.2c1.8-0.5,2.9-2.4,2.3-4.3l-0.4-1.3l-4.2-14.3l15.5,6.8l0.7,0.3c0.8,0.4,1.7,0.6,2.7,0.6
				c3.7,0,6.7-3,6.7-6.7l0,0c0.9-8.9,0.7-17.6-0.2-26.2c-0.9-8.6-2.4-17-4.3-25.3c-1.9-8.3-4.2-16.5-6.8-24.5
				c-2.6-8.1-5.4-15.9-8.8-24l0,0l-2.4-3.3c-0.7-1-1.8-1.9-3-2.4c-3.8-1.7-8.2,0-9.9,3.8l-14.4,32.3l17.6-13c1.6,4,3.2,8.1,4.7,12.1
				c2.7,7.5,5.2,15.2,7.2,22.8c3.1,11.8,5.5,23.8,6,35.6l-20.2-9.7c-1.9-0.9-4.1-1-6.2-0.2c-3.9,1.6-5.8,6.1-4.2,10l0.1,0.2l0,0
				l12.1,21c-0.5-0.1-1-0.2-1.5-0.2c-3.4-0.4-6.8-0.5-10.3-0.3c-3.5,0.2-7.2,0.9-10.8,2.2c-3.6,1.3-7.2,3.5-10.2,6.5l0,0
				c-0.2,0.2-0.4,0.5-0.6,0.7c-2.1,2.9-1.4,6.9,1.4,9l0.3,0.2c3.8,2.7,7.6,5.6,11.2,8.6c0.3,0.2,0.6,0.5,0.9,0.7
				c-7.3,1.9-14.6,4.3-21.7,7.7c-1.7,0.8-3.4,1.7-5.1,2.6c10.1-51.8,21.5-87.7,21.7-88.2C1039.8,632.2,1039.4,628.9,1037.7,626.3z"
				/>
			<path class="st2" d="M1124.3,1146.3c103.6-66.2,50.4-165.5,24.5-203.2c-7.3-10.7-9.4-24.2-5.3-36.4
				c21.9-66.6,63.3-117.6,91.5-152.5c-7-4.8-14.1-9.5-21.4-13.6c-10.3-6-21-11.5-31.9-15.8c-1.3-0.5-2.7-1-4-1.5
				c-25.4,49.1-67.9,118.6-87.8,150.6c-6.4,10.3-17.8,15.9-29.9,16c-146.8,1.4-156.6,126.1-117.7,170.7c11.9,13.7,26.1,25.5,40.7,37
				c14.7,11.5,30.3,22.1,46,33.1c-18.5-5.2-36.3-12.8-53.2-22.1c-2-1.1-3.9-2.2-5.8-3.3c-9.2,10.9-33,42.1-38.6,79.2
				c6.6-3.7,13.7-7,19.5-7.8c3.2-0.4,6.4,0.4,8.8,2.7c4.2,4,4.3,10.2,0.9,14.3c-0.7,0.9-17.8,22.6-1.8,54.1h247.8
				C1172.1,1187.9,1124.3,1146.3,1124.3,1146.3z"/>
			<path class="st2" d="M597.9,758.6c-20-41.3-10.9-90.3,22.7-122c55.2-52.1,96.2-106,113.2-129.5c8.7,14.5,21.4,44.2,18.6,90.2
				c-0.2,3.2,1,6.4,3.5,8.5s5.6,3,8.8,2.4c0.2,0,24.9-3.5,82,24.1c57.2,27.7,69.7,49.1,69.7,49.2c1.5,2.9,4.2,4.9,7.4,5.5
				c3.2,0.6,6.5-0.3,8.9-2.5c34.3-30.8,65.4-39.2,82.2-41.4c-7.9,27.9-24.8,93.5-31.3,169.1c-4,46-36.7,83.6-81.5,93.5
				c-58.4,12.9-117.8,5.1-176.4-23.2C667,854.1,624,812.4,597.9,758.6z"/>
			<path class="st3" d="M715.9,746.4c68.7,0,127.2-43.5,149.4-104.5c-5.6-3.1-11.8-6.3-18.7-9.7c-57.2-27.7-81.8-24.2-82-24.1
				c-3.2,0.6-6.4-0.2-8.8-2.4s-3.7-5.3-3.5-8.5c2.8-46-9.9-75.6-18.6-90.2c-17,23.6-58,77.5-113.2,129.5
				C606,650.4,596,667.5,591,685.8C620.1,722.7,665.2,746.4,715.9,746.4z"/>
			<path class="st4" d="M875,931.1c-0.9,2.1-1.8,4.3-2.6,6.5c-1,2.7-1.9,5.3-2.8,8.1c-87.2,4.5-140.5-14.4-170-31.3
				c-24.5-14-37.1-29-41.8-35.6c1.4-4.2,2.7-7.8,3.8-11c16.6,12.6,35,23.8,55,33.5c43.2,20.9,86.9,31.4,130.5,31.4
				C856.3,932.6,865.7,932.1,875,931.1z"/>
			<path class="st2" d="M632.9,983.8c4.7-31.9,11.3-59.8,17.5-81.4c22.7,24.2,77.8,64.7,193,64.7c7.2,0,14.6-0.2,22.2-0.5
				c0.4,5.3,4.8,9.5,10.2,9.5h0.2h5.3c0,1.5,0,3,0.1,4.4c0.2,5.3,0.9,10.5,1.9,15.6c2,10.2,5.5,20,9.8,29.3
				c8.8,18.5,21.4,34.5,35.6,48.4c7.6,7.2,15.5,13.8,23.8,19.8c-13.7,16.6-45.1,60.2-43,111.2c0.2,3.8,2.4,7.3,5.9,9
				c3.5,1.7,7.6,1.3,10.7-1c1.9-1.4,3.9-2.8,6-4.2c-2,10.7-1.9,24.1,3.8,39.2h-26.4c-5.4-3.8-10.6-9-15.2-14.8
				c-5.4-6.8-10.2-14.4-14.7-22.3c-4.4-8-8.4-16.3-12-24.8c-3.6-8.6-7-17.2-11.8-25.7c-0.8,9.8,0.8,19.3,2.9,28.6
				c2.1,9.3,4.8,18.6,8.1,27.7c3.4,9.1,7.4,18.2,12.7,26.8c0.9,1.5,1.9,3.1,3,4.6H798c-3.8-5.2-7.3-10.7-10.4-16.5
				c-3.9-7.3-7.5-14.8-10.5-22.6c-3-7.8-5.7-15.8-8-23.9c-1.1-4.1-2.2-8.1-3.1-12.2c-1-4-1.8-8.3-2.5-12.1l-0.7-2.4
				c-1.1-3.5-4.2-6.1-8.1-6.4c-7.4-0.4-15-1.1-22.3-3.1c-3.8-0.8-7.3-2.2-11-3.4c-3.5-1.5-7.2-2.9-10.7-4.7
				c-7-3.5-13.8-7.8-20.1-12.8c-6.3-5-12.2-10.6-17.4-16.9c3.7,7.3,8.4,14.2,13.8,20.7c5.3,6.5,11.4,12.4,18,17.8
				c3.3,2.8,6.9,5.1,10.4,7.6c3.7,2.2,7.4,4.6,11.4,6.4c5.5,2.9,11.3,5,17.3,6.9c0.5,2.4,1,4.7,1.5,7.1c1,4.4,2.2,8.8,3.4,13.2
				c2.5,8.7,5.3,17.4,8.7,25.9c3.3,8.5,7.2,16.8,11.5,25c1.2,2.2,2.5,4.4,3.8,6.6H663.6C620.5,1152,623,1051.7,632.9,983.8z"/>
			<ellipse transform="matrix(0.4354 -0.9002 0.9002 0.4354 -210.9159 1044.7183)" cx="727.4" cy="690.5" rx="26.8" ry="23.1"/>
			<path class="st2" d="M722.8,682.2c2.6-5.4,8.5-8,13.2-5.7s6.3,8.5,3.7,13.8c-2.6,5.4-8.5,8-13.2,5.7
				C721.8,693.8,720.2,687.6,722.8,682.2z"/>
			<path d="M760.1,784.8c-1.1,1.7-2.3,3.4-3.5,4.9c-1.1,1.4-2.2,2.6-3.3,3.9c-1.2,1.1-2.3,2.2-3.5,3.1c-2.4,1.9-4.8,3-7.4,3.5
				c-5.1,1.1-11.8-1.7-16.9-7.2c-2.5-2.7-4.8-5.9-6.2-9.5c-0.8-1.8-1.2-3.7-1.5-5.7c-0.2-2-0.2-4,0.4-6.1c-1.4,1.6-2.4,3.7-3.1,5.9
				c-0.5,2.2-0.8,4.5-0.7,6.8c0.1,4.7,1.4,9.3,3.5,13.6c2.1,4.3,5.1,8.3,9.3,11.6c4.1,3.2,9.5,5.6,15.3,6c5.8,0.4,11.6-1.2,16.4-3.6
				c0.3-0.2,0.6-0.4,0.9-0.5c0.1,0.4,0.1,0.7,0.2,1.1c1.1,5.3,3.4,10.8,7.3,15.1c3.9,4.3,9.1,7.1,14.2,8.3
				c5.1,1.2,10.2,1.1,14.8,0.1c4.7-1,9.1-2.9,12.8-5.7c1.9-1.3,3.5-3,4.9-4.8c1.3-1.9,2.3-4,2.7-6c-1.3,1.7-2.9,3-4.5,4.1
				c-1.8,1-3.5,1.8-5.4,2.3c-3.7,1.1-7.6,1.3-11.3,1c-7.4-0.6-13.8-4.1-16.1-8.8c-1.2-2.3-1.8-5-1.8-8c-0.1-1.5,0.1-3.1,0.3-4.7
				c0.3-1.7,0.5-3.3,1-5c0.5-1.9,1.1-3.8,1.7-5.8c10.8,2.2,20.2-0.1,23.4-6.7c4.2-8.8-4.3-21.6-19-28.8c-14.7-7.1-30.1-5.8-34.3,2.9
				C747.6,768.9,751.6,777.8,760.1,784.8z"/>
			<path d="M863.2,786c11.5,5.5,26-0.8,32.5-14.1c6.5-13.3,2.4-28.6-9.1-34.2c-11.5-5.5-26,0.8-32.5,14.1
				C847.7,765.1,851.8,780.4,863.2,786z"/>
			<path class="st2" d="M867.5,752.2c2.6-5.4,8.5-8,13.2-5.7s6.3,8.5,3.7,13.8c-2.6,5.4-8.5,8-13.2,5.7
				C866.6,763.8,864.9,757.6,867.5,752.2z"/>
			<path d="M1016.6,853.2l3.2,0.8l6.3,1.5c4.2,0.9,8.4,1.9,12.7,2.7c4.2,0.8,8.4,1.6,12.7,2.2c4.2,0.6,8.5,1.2,12.7,1.5l1.4,0.1
				c2.2,0.2,4.5-0.5,6.3-2c3.8-3.1,4.3-8.7,1.2-12.5l-37.4-45.2l15.4,40.5c-3.8,0.1-7.6,0.3-11.3,0.6c-4.3,0.3-8.6,0.7-12.9,1.1
				l-6.5,0.7l-3.2,0.4c-1.1,0.1-2.2,0.7-3.4,3.6C1014.5,852.2,1015.6,853,1016.6,853.2z"/>
			<path d="M1174.2,956.2c10.7,5.9,26.4-2,35-17.6c8.6-15.6,6.9-33.1-3.8-39s-26.4,2-35,17.6
				C1161.7,932.8,1163.5,950.3,1174.2,956.2z"/>
			<path class="st2" d="M1187.6,917.1c3.1-5.5,9.3-8,13.9-5.4c4.6,2.5,5.9,9.1,2.9,14.6c-3.1,5.5-9.3,8-13.9,5.4
				C1185.9,929.2,1184.6,922.6,1187.6,917.1z"/>
			<path d="M1058,996.3c14.8-0.9,36.1-3.5,41.9-10.7c9.1-11.4-50.5-60.9-62.4-42.7c-6.7,10.2-2.8,23.1,0.6,35.3l-2.1,2.1
				c-0.6,0.6-1.3,1.3-1.9,1.9l-1.8,1.6c-4.8,4.3-10.2,8.3-15.6,11.2c-5.5,2.8-11.3,4.7-16.8,4.9c-2.7-0.1-5.4-0.2-7.8-1.1
				c-2.4-0.9-4.7-2.1-6.7-3.8c-1.9-1.8-3.6-4-5-6.5c-1.2-2.6-2.3-5.4-2.7-8.6c-1.2-6.2-0.5-13,1-19.7c1.6-6.7,4.2-13.4,7.5-19.8
				c3.3-6.4,7.3-12.6,11.6-18.7c-5.8,4.7-11.2,9.9-16,15.8c-4.8,5.9-9,12.5-12,19.7c-3.1,7.2-5.1,15.3-4.9,23.8
				c0,4.3,0.9,8.6,2.3,12.9c1.5,4.2,3.8,8.4,6.9,12c3.2,3.6,7.1,6.5,11.5,8.5c4.4,2.1,9.1,3.1,13.7,3.5c9.3,0.5,18.1-1.6,25.9-5
				c3.3-1.4,6.3-3.1,9.2-4.9c-0.3,2.6-0.6,5.3-0.7,7.9c-0.2,7.9,0.3,16,3,24c0.8,2,1.3,4,2.3,5.9l1.4,2.9l1.7,2.8
				c1.1,1.9,2.6,3.6,4.1,5.3c1.6,1.6,3.2,3.2,5.1,4.5c1.8,1.4,3.9,2.4,5.9,3.5c1,0.5,2.1,0.8,3.2,1.2c1.1,0.4,2.2,0.7,3.2,0.9
				c4.4,1.1,8.8,0.9,12.9,0.5c8.3-1.2,15.4-4.6,21.8-8.6c6.3-4.1,11.8-8.9,16.8-14.2c5-5.2,9.3-10.9,13.3-16.8
				c-5.7,4.3-11.2,8.6-17.1,12.3c-2.8,2-5.9,3.6-8.8,5.3l-4.5,2.3c-1.5,0.7-3.1,1.3-4.5,2c-6.1,2.5-12.3,4.1-18.1,4.2
				c-5.7-0.2-10.7-1.7-14.2-5.2c-3.6-3.3-5.9-8.3-7.2-13.8c-1.2-5.6-1.4-11.7-0.7-17.8C1054,1010.1,1055.7,1003.2,1058,996.3z"/>
			<path class="st3" d="M893,1025.4c-4.3-9.3-7.7-19.1-9.8-29.3c-1-5.1-1.7-10.3-1.9-15.6c-0.1-1.5-0.1-2.9-0.1-4.4H876h-0.2
				c-5.1,0-9.3-3.8-10-8.7c-17.8,15.6-29,38.5-29,64c0,47,38.1,85.2,85.2,85.2c5,0,10-0.5,14.8-1.3c5.9-9.3,11.6-16.7,15.7-21.7
				c-8.3-6.1-16.3-12.7-23.8-19.8C914.4,1060,901.8,1044,893,1025.4z"/>
			<path d="M1321.9,848.2l0.4,0.1l23.7,3.8l-10.8,32.5l33.3-35.6c0.7-0.8,1.3-1.7,1.7-2.8c1.7-4.5-0.5-9.5-4.9-11.2l-4.2-1.6l0,0
				l-17.1-2.7l0.6-0.6c4.6-4.4,8.9-9.2,13.9-13.2c2.4-2,4.8-4.2,7.3-6.1l7.7-5.6c2.5-2,5.3-3.5,8-5.2c2.7-1.6,5.3-3.5,8.2-4.8
				l8.4-4.4l8.7-3.8c5.9-2.4,11.8-4.6,17.9-6.3c6.1-1.8,12.2-3.2,18.4-4.3c1.4-0.2,2.7-0.4,4.1-0.6l-8.3,26.9l31.6-33.5
				c1.1-1.2,1.9-2.7,2.3-4.5c0.8-4.8-2.3-9.3-7.1-10.2l-4.1-0.7l0,0c-1.2,0-2.1,0-3.1,0c-1,0-1.9,0.1-2.8,0.1
				c-1.8,0.1-3.7,0.2-5.5,0.5c-3.6,0.3-7.1,0.9-10.7,1.4c-7,1.3-14,2.8-20.8,4.9c-6.8,2-13.5,4.4-20.1,7.1l-9.7,4.3l-9.4,4.9
				c-3.2,1.5-6.1,3.6-9.2,5.4c-3,1.9-6.1,3.7-8.9,5.8l-8.6,6.2c-2.8,2.2-5.4,4.5-8.1,6.8c-5.6,4.4-10.3,9.6-15.4,14.6l-1.9,1.9
				l-1.7,2l-3.4,4l-6.9,8c-1.2,1.4-2,3.1-2.3,5C1312.6,842.1,1316.4,847.3,1321.9,848.2z"/>
		</g>
		<g>
			<path d="M627.8,1390.7c0.3,2,0.4,4,0.4,5.9c0,11-4.7,22.8-14,35.4c-7.5,10.2-16.8,19.3-27.7,27.3c-10,7.3-16.8,10.6-20.4,10.1
				c-4-0.5-10.9-3.5-21-8.8c-10-5.3-15.4-9-16.2-11c-0.3-0.5-0.4-1.1-0.4-1.8c0-0.8,0.2-1.8,0.7-3.1c0.5-1.3,0.7-2.2,0.7-2.9v-128.2
				c0-2.1,2.9-3.2,8.7-3.2c2.6,0,4.9,0.3,6.9,0.8c6.2-4,14-7.5,23.4-10.6c9.4-3.1,17.5-4.6,24.2-4.6c4,0,7,0.6,9.2,1.7
				c2.2,1.1,4.2,3.1,6,5.8c2.4,3.8,4,6.2,4.9,7.1c0.3,0.3,2.4,2,6.5,5.3c2.4,2,3.9,4.1,4.6,6.3c0.5,1.6,0.8,3.3,0.8,5.1
				c0,10.4-6.9,21.8-20.8,34C618.6,1372.3,626.3,1382,627.8,1390.7z M593.2,1326.4c-0.3-0.5-1-0.8-2.2-0.8c-3,0-7.8,1.6-14.2,4.7
				c-6.5,3.2-10.8,6.2-13.1,9.1v20.6c8.4-6.7,15.7-13.6,21.9-20.6C591.7,1332.5,594.2,1328.1,593.2,1326.4z M600.3,1385
				c-3.4,0.1-9.2,1.8-17.4,4.9c-8.8,3.6-15.2,7.1-19.2,10.5v36.8c8.6-2.4,17-9.6,25.3-21.8C597.3,1403.3,601.1,1393.1,600.3,1385z"
				/>
			<path d="M755.2,1438.4c1.2,2.2-1.2,7.8-7,16.5c-5.9,8.8-10.8,13.1-14.7,13c-4.2-0.1-7.6-2.4-10.1-6.7c-0.4-1.3-1.4-3.2-3-5.7
				l-41.7-39v36.6c0,1.5,0.6,3.3,1.7,5.5c1.1,2.2,1.7,3.9,1.7,4.9c0,4-2.6,6.1-7.7,6.5c-4,0.4-9.8-0.3-17.6-2.2
				c-8.4-1.8-12.7-3.8-12.7-5.9c0-0.7,0.2-1.5,0.5-2.7c0.3-1.1,0.5-2.5,0.5-4.3v-138.1c0-0.9-0.2-1.7-0.6-2.5
				c-0.4-0.7-0.6-1.3-0.6-1.7c0.1-3.6,2.8-5.7,7.9-6.3c1.6-0.3,5.2,0.4,10.8,1.9c5.6,1.5,9.6,2.2,12,2.1c2.2-0.1,6.8-1.9,13.8-5.4
				c6.9-3.5,13-5.2,18.1-5.2c2,0,4,0.2,6.1,0.6c3.7,0.8,7.1,2.5,10.1,5.1c3,2.6,5.9,5.3,8.7,7.9c7.3,6.9,11,10.5,11.3,10.9
				c3.4,4,5.3,8.4,5.5,13.3c0.8,15.3-12.3,35-39.2,59c5.5,5,17.7,17.2,36.6,36.6c1.2,0.4,2.9,1.2,5.1,2.4
				C752,1436.1,753.5,1437.1,755.2,1438.4z M711.5,1327.8c-6.2,0-17.1,6.5-32.8,19.4v30.3c5.7-2.2,13.1-9,22.4-20.4
				c9.2-11.3,13.8-19.8,13.8-25.3C714.8,1329.1,713.7,1327.8,711.5,1327.8z"/>
			<path d="M809,1309.4c0,0.9-0.3,2.2-0.9,3.8c-0.6,1.6-1,2.6-1.1,3c-0.8,2.6-1.6,6.7-2.4,12.3v121.5c0,1.6,0.4,3,1.2,4.3
				c0.8,1.3,1.2,2.3,1.2,3.1c0,8.4-1.6,13-4.7,13.7c-1.2,0.3-5.8-0.6-13.8-2.6c-8.4-2.1-13.3-3.8-14.6-4.9c-2.9-2.5-4.4-4.8-4.4-6.9
				c0-0.5,0.3-1.1,0.8-1.8c0.5-0.7,0.8-1.8,0.8-3.4v-139.5c0-0.8-0.2-1.6-0.7-2.5c-0.5-0.9-0.7-1.7-0.7-2.5c0.3-3.2,2.7-5.3,7.3-6.3
				c1.4-0.3,4.5-0.3,9.1,0c5.7,0.4,10.4,1.1,14.2,2.2C806.1,1304.2,809,1306.5,809,1309.4z"/>
			<path d="M922.2,1333.1c-1.1,0-2.5-0.4-4.4-1.3c-1.8-0.9-3.4-1.2-4.6-0.9l-20.4,5.5v104.1c0,3.8,0.9,8,2.8,12.5
				c0.5,1.3,0.4,3.8-0.4,7.5c-0.8,4.1-2,6.7-3.8,7.7c-0.3,0.1-0.9,0.2-2,0.2c-4.4,0-10.4-0.9-18.2-2.6c-8.7-2-13.8-3.9-15.4-5.7
				c-1.8-2.4-1.8-5.5,0.2-9.5c1.7-3.4,2.6-5.9,2.6-7.5v-97.9l-14,3.6c-0.7,0.1-1.7,0.7-3.3,1.7c-1.5,1-2.8,1.4-3.9,1.1
				c-3-0.8-7.2-4.7-12.5-11.8c-5.3-7.1-7.6-11.8-6.9-14.3c1.1-3,4.2-5.3,9.3-6.9c1.3-0.4,3-0.5,5.1-0.2c2.1,0.3,3.8,0.3,4.9,0
				l68.9-17.6c0.7-0.1,2.6-0.9,5.7-2.4c2.1-0.9,4-1.3,5.7-1c3.7,0.5,6.2,2,7.5,4.4c0.9,1.6,1.9,4.5,3,8.9c1.3,5.1,2,9.6,2,13.5
				c0,2.9-0.4,5.1-1.1,6.6C928.5,1332.2,926.1,1333,922.2,1333.1z"/>
			<path d="M1041.1,1333.1c-1.1,0-2.5-0.4-4.4-1.3c-1.8-0.9-3.4-1.2-4.6-0.9l-20.4,5.5v104.1c0,3.8,0.9,8,2.8,12.5
				c0.5,1.3,0.4,3.8-0.4,7.5c-0.8,4.1-2,6.7-3.8,7.7c-0.3,0.1-0.9,0.2-2,0.2c-4.4,0-10.4-0.9-18.2-2.6c-8.7-2-13.8-3.9-15.4-5.7
				c-1.8-2.4-1.8-5.5,0.2-9.5c1.7-3.4,2.6-5.9,2.6-7.5v-97.9l-14,3.6c-0.7,0.1-1.7,0.7-3.3,1.7c-1.5,1-2.8,1.4-3.9,1.1
				c-3-0.8-7.2-4.7-12.5-11.8c-5.3-7.1-7.6-11.8-6.9-14.3c1.1-3,4.2-5.3,9.3-6.9c1.3-0.4,3-0.5,5.1-0.2c2.1,0.3,3.8,0.3,4.9,0
				l68.8-17.6c0.7-0.1,2.6-0.9,5.7-2.4c2.1-0.9,4-1.3,5.7-1c3.7,0.5,6.2,2,7.5,4.4c0.9,1.6,1.9,4.5,3,8.9c1.3,5.1,2,9.6,2,13.5
				c0,2.9-0.4,5.1-1.1,6.6C1047.4,1332.2,1045,1333,1041.1,1333.1z"/>
			<path d="M1157.6,1453.8c-0.1,1.2-0.4,4-0.8,8.5c-0.1,2.4-0.7,4.2-1.6,5.3c-0.7,0.4-1.8,0.6-3.4,0.6c-4.4,0-9.8-1.1-16.2-3.4
				c-7-2.1-11.7-4.6-14.2-7.5c-1.1-1.2-2.1-5.1-3.2-11.9c-1.5-8.8-3.1-16.2-4.9-22c-5,0.7-12.3,2.5-22,5.4c-9.6,3-15.9,5.4-18.8,7.4
				c-2,5.7-4.6,12.7-7.9,21c-0.4,1.8-0.8,3.6-1.3,5.2c-0.5,1.6-1.6,3-3.5,4.1c-0.4,0.3-1,0.4-1.8,0.4c-3.2,0-8.5-1.7-15.9-4.9
				c-7.5-3.3-11.3-5.5-11.6-6.5c-0.5-1.8,0.7-6.4,3.8-13.7c4.2-10.6,6.7-17,7.3-19.4c-2.8-2.8-4.2-5.5-4.2-8.3
				c0-0.7,0.1-1.4,0.2-2.2c0.3-1.6,4.3-4.4,12.1-8.5l25.5-87.2c0.4-1.6,0.5-4.5,0.2-8.7c-0.3-3.6,0.1-5.8,1.2-6.7
				c0.7-0.7,2.2-1,4.7-1c6.2,0,15,1.6,26.5,4.7c11.5,3.2,18.3,6,20.6,8.5c0.8,14.6,3.8,36.6,8.9,65.9
				C1144,1415.2,1150.7,1440.1,1157.6,1453.8z M1106,1393.7c-1.7-8.3-2.8-13.8-3.2-16.4c-1.5-8.8-2.4-18-3-27.5
				c-2.6,6.5-5.7,15.4-9.3,26.9c-3.8,12-5.9,19.5-6.1,22.6C1086.9,1398.1,1094.1,1396.3,1106,1393.7z"/>
			<path d="M1285.4,1309.4c0,1.5-0.3,2.8-0.8,4.2c-0.9,2.2-1.5,4-1.8,5.3v130.6c0-0.4,0.3,2,1,7.3c0.8,6.1,0,10-2.4,11.9
				c-2.4,1.8-7.7,2.4-16,1.6c-4.7-0.4-10.2-1.7-16.4-3.8c-8-2.5-12.5-5.1-13.3-7.9c0.1-1.8-0.1-4.7-0.6-8.5
				c-7.4-19.5-16-41-25.7-64.3v58.6c0,1.1,0.5,2.4,1.4,4.2c1.2,2.2,1.8,3.4,1.8,3.6c0.7,2,1,4,1,5.9c0,5.3-2.4,7.9-7.1,7.9
				c-4.6,0-11.1-1.3-19.6-4c-7.9-2.6-12.4-4.7-13.5-6.1c-1.6-2.1-1.6-4.8,0-8.1c1.6-3.3,2.4-5.3,2.4-6.1v-124c0-0.8-0.2-2-0.6-3.6
				c-0.4-1.6-0.5-2.8-0.2-3.8c1.3-4.5,3.9-7.5,7.7-9.1c0.7-0.3,2.1-0.4,4.4-0.4c5.1,0,10.4,0.7,15.8,2c7,1.6,11.9,3.8,14.6,6.7
				c3.7,4,8.5,16,14.4,36.2c7.3,24.8,12.9,41.5,17,50.3v-77.8c0-1.1-0.3-2.5-0.8-4.5c-0.5-1.9-0.8-3.4-0.8-4.5
				c0-0.8,0.1-1.5,0.4-2.2c0.7-2.2,3.2-3.9,7.5-4.9c3.4-0.9,6.7-1.3,9.9-1c3,0.3,6.7,1,10.9,2.2
				C1282.2,1305.1,1285.3,1307.1,1285.4,1309.4z"/>
			<path d="M1425.1,1315.9c0.8,6.9-0.8,11.2-4.7,13.1c-2.2,1.1-3.3,1.6-3.2,1.6c-7.7,11.7-17.7,32.4-30.3,61.9
				c-11.7,28-17.9,44.8-18.4,50.5c-0.1,1.1,0.1,2.9,0.8,5.5c0.7,2.6,0.9,4.8,0.8,6.5c-0.8,9-3,13.8-6.7,14.4
				c-1.8,0.3-6.4-0.7-13.8-3c-7.3-2.2-12.2-4.2-14.7-5.7c-4.5-3.2-6.7-6.3-6.7-9.5c0-1.6,0.5-3.4,1.4-5.3
				c1.8-5.1,5.7-15.7,11.7-31.7c-10.9-22.6-18.3-38.1-22.2-46.7c-7.7-17.1-13.1-31.2-16.2-42.1c-0.3-0.7-1-1.6-2.3-3
				c-1.3-1.3-1.9-2.5-1.9-3.6c0-2,2.6-4.9,7.7-8.9c10.9-8.4,18.5-12.4,22.6-11.9c2.1,0.3,4,1.7,5.7,4.2c1.4,2,2.3,3.8,2.6,5.3
				c0,2.5,0.4,6.5,1.2,12.1c3,16.4,9.4,34.1,19,53.2c7.4-18.1,11.5-28,12.5-29.9c5-11.2,10.7-21.7,17-31.5c0.5-2.1,1.5-4.8,2.8-8.1
				c2.6-3,6.2-4.3,10.7-3.8c3.2,0.4,8,2.7,14.5,6.9C1421.4,1310.8,1424.8,1313.9,1425.1,1315.9z"/>
			<path d="M1471,1349.7c-3.4,3.7-8.8,6.4-16.2,8.1c-1.5,0.4-3.1-0.2-5-1.8c-1.9-1.6-2.9-3-2.9-4.4c0-0.7,0.3-1.1,1-1.4
				c1.7-0.7,3.3-2.6,4.6-5.7c1.4-3.2,2.1-6.5,2.1-10.1c0-7.4-2.9-12.4-8.7-15c-3.2-1.5-4.7-4.2-4.7-8.3c0-0.9,0.1-1.7,0.4-2.4
				c0.8-1.7,3.9-3.9,9.2-6.6c5.3-2.7,8.9-3.8,10.8-3.3c4.5,1.1,8.4,4.6,11.8,10.8c3.4,6.1,5,12.7,5,19.7
				C1478.3,1337.7,1475.9,1344.5,1471,1349.7z"/>
			<path d="M1585.1,1435c0,9.8-3.2,17.8-9.7,24c-6.5,6.3-15.4,9.5-26.9,9.8c-2.9,0-6-0.5-9.3-1.4c-6.1-1.7-9.2-2.6-9.5-2.6
				c-3.2-0.7-6.4-1.4-9.6-2.1c-3.2-0.7-6-2.2-8.4-4.5c-3.6-3.2-6.5-8.3-8.7-15.4c-2.8-8.3-4.9-13.5-6.3-15.6
				c-1.1-1.1-2.3-2.9-3.8-5.5c-0.4-2,0-3.9,1.1-5.8c1.1-1.9,2.5-3.1,4.1-3.7c0.8-0.3,2.2-0.4,4.4-0.4c4.6,0,10.3,0.6,16.9,1.7
				c6.7,1.1,10.4,2.1,11.2,3.1c0.8,0.9,1.8,5.7,3.2,14.2c1.2,7.9,3,12.3,5.3,13.3c0.5,0.3,1.1,0.4,1.8,0.4c2.5,0,4.6-2.1,6.4-6.2
				c1.8-4.2,2.7-8.9,2.7-14.1c0-11.5-3.6-19.1-10.7-23c-16.4-8.8-27.8-17-34.4-24.5c-7.7-8.7-11.1-19-10.3-30.9
				c0.7-9.9,4.3-19.9,10.8-30c6.5-10.1,13.4-16,20.7-17.7c3-0.7,12.3,2.2,27.7,8.7c3.8,1.5,7.7,3,11.6,4.6c3.9,1.6,7,3.9,9.4,6.9
				c3.7,4.6,5.5,12.6,5.5,23.9c0,2.1-0.1,5.2-0.2,9.3c-0.1,3.6-0.2,6.1-0.2,7.5c0.1,0.9,0.6,2.4,1.4,4.5c0.7,1.5,0.9,2.9,0.8,4.4
				c-0.3,5.8-2.7,9-7.3,9.7c-2.6,0.4-7.5-0.6-14.6-3c-7.9-2.5-12.9-5.2-15-8.1c-0.3-0.4-0.4-1.7-0.4-4c0-2,0.2-6.5,0.7-13.5
				c0.5-7,0.7-12.1,0.7-15.2c0-5.7-0.7-8.4-2-8.3c-4.1,0.3-7.5,3.2-10.2,8.8c-2.7,5.6-4.1,12-4.1,19.1c0,11.9,3.5,20.3,10.5,25.3
				c7.9,5,15.8,10,23.7,15c7.5,4.9,12.7,9.8,15.6,14.6C1583.3,1414.8,1585.1,1423.7,1585.1,1435z"/>
		</g>
		<g>
			<path d="M643.2,1568c0,32.5-21.1,54.4-49.2,54.4c-15.8,0-29.3-7.3-37.6-21.1v59.5H543v-146.2h12.8v21.1
				c8.1-14.2,21.8-21.9,38.2-21.9C622.2,1513.8,643.2,1535.7,643.2,1568z M629.9,1568c0-24.8-16-41.6-36.8-41.6
				c-21.1,0-36.8,16.9-36.8,41.6c0,25,15.8,41.6,36.8,41.6C613.9,1609.6,629.9,1592.9,629.9,1568z"/>
			<path d="M763.2,1572.4h-82.7c1.5,22.3,17.3,37.2,38.9,37.2c12,0,22.7-4.7,30.3-14l7.5,9.3c-8.8,11.4-22.6,17.5-38.2,17.5
				c-30.8,0-51.9-22.7-51.9-54.4s20.5-54.2,48.3-54.2c27.8,0,47.9,22.1,47.9,54.2C763.4,1569.2,763.2,1570.8,763.2,1572.4z
				 M680.5,1561.7h70.1c-1.7-20.9-15.8-35.5-35.2-35.5C696.2,1526.2,682.1,1540.8,680.5,1561.7z"/>
			<path d="M849.3,1614.9c-5.3,5.1-13.2,7.5-20.9,7.5c-18.6,0-28.9-11.4-28.9-31.1v-64.6h-17.7v-12.2h17.7v-23.3h13.3v23.3h30.1
				v12.2h-30.1v63.7c0,12.6,6,19.5,17.1,19.5c5.5,0,10.9-1.8,14.7-5.5L849.3,1614.9z"/>
		</g>
		<rect x="269.7" y="1480.5" class="st5" width="0" height="3.1"/>
		<g>
			<path d="M918.3,1612.3l6-11.4c7.9,6.7,21.2,12,35.2,12c18.8,0,26.5-6.9,26.5-17.5c0-27.8-64.1-5.9-64.1-48.1
				c0-17.5,13.9-30.5,39.1-30.5c12.8,0,26.7,3.9,35,9.9l-5.8,11.6c-8.6-6.5-19-9.1-29.1-9.1c-17.9,0-25.8,7.5-25.8,17.7
				c0,28.8,64.1,7.1,64.1,48.1c0,18.5-15,30.5-40.8,30.5C942.2,1625.5,926.4,1619.8,918.3,1612.3z"/>
			<path d="M1116.6,1575.5h-82.7c1.5,22.3,17.3,37.2,38.9,37.2c12,0,22.7-4.7,30.3-14l7.5,9.3c-8.8,11.4-22.6,17.5-38.2,17.5
				c-30.8,0-51.9-22.7-51.9-54.4s20.5-54.2,48.3-54.2c27.8,0,47.9,22.1,47.9,54.2C1116.8,1572.3,1116.6,1573.9,1116.6,1575.5z
				 M1033.9,1564.7h70.1c-1.7-20.9-15.8-35.5-35.2-35.5C1049.7,1529.2,1035.6,1543.8,1033.9,1564.7z"/>
			<path d="M1200.5,1516.8v14c-1.1,0-2.3-0.2-3.2-0.2c-20.7,0-33.3,14.2-33.3,39.4v54.4h-13.3v-106.8h12.8v20.9
				C1169.6,1524.3,1182.2,1516.8,1200.5,1516.8z"/>
			<path d="M1318.5,1517.6l-44,106.8h-13.7l-43.8-106.8h13.9l37,91l37.4-91H1318.5z"/>
			<path d="M1340.9,1483.9c0-5.5,4.3-10.2,9.8-10.2s9.8,4.5,9.8,9.9c0,5.9-4.1,10.6-9.8,10.6
				C1345.2,1494.3,1340.9,1489.6,1340.9,1483.9z M1343.9,1517.6h13.3v106.8h-13.3V1517.6z"/>
			<path d="M1391.1,1571c0-31.9,21.4-54.2,50.9-54.2c16.7,0,30.8,7.1,38.7,21.1l-10,7.3c-6.8-10.8-17.3-15.8-28.8-15.8
				c-21.6,0-37.4,16.6-37.4,41.6c0,25.2,15.8,41.6,37.4,41.6c11.5,0,22-4.9,28.8-15.6l10,7.3c-7.9,13.8-22,21.1-38.7,21.1
				C1412.5,1625.5,1391.1,1602.9,1391.1,1571z"/>
			<path d="M1597.8,1575.5h-82.7c1.5,22.3,17.3,37.2,38.9,37.2c12,0,22.7-4.7,30.3-14l7.5,9.3c-8.8,11.4-22.6,17.5-38.2,17.5
				c-30.8,0-51.9-22.7-51.9-54.4s20.5-54.2,48.3-54.2c27.8,0,47.9,22.1,47.9,54.2C1598,1572.3,1597.8,1573.9,1597.8,1575.5z
				 M1515.1,1564.7h70.1c-1.7-20.9-15.8-35.5-35.2-35.5C1530.9,1529.2,1516.8,1543.8,1515.1,1564.7z"/>
		</g>
	</g>
</g>
</svg>
